# xmcd CD database file
#
# Track frame offsets:
#	150
#	20317
#	36813
#	59502
#	74849
#	91522
#	112484
#	130294
#	147439
#	162876
#
# Disc length: 2465 seconds
#
# Revision: 0
# Processed by: cddbd v1.5.2PL0 Copyright (c) Steve Scherf et al.
# Submitted via: CDex 1.70beta2
#
DISCID=92099f0a
DTITLE=黒夜葬 - ∵Ga[Я]deN∵
DYEAR=2007
DGENRE=東方アレンジ
TTITLE0=Mystletainn
TTITLE1=アッシェンプッテルの檻
TTITLE2=Rosen∵Kreuz∵Orden
TTITLE3=[Я]e Incarnation
TTITLE4=永続紫怨拘束領域
TTITLE5=GardeN-片翅ノ蝶-
TTITLE6=翼型術式魔装-鴉-
TTITLE7=Divine Ash
TTITLE8=Master Of Puppet
TTITLE9=Paradise Lost
EXTD=YEAR: 2007
EXTT0=
EXTT1=
EXTT2=
EXTT3=
EXTT4=
EXTT5=
EXTT6=
EXTT7=
EXTT8=
EXTT9=
PLAYORDER=
